<!DOCTYPE svg PUBLIC "-//W3C//DTD SVG 1.1//EN" "http://www.w3.org/Graphics/SVG/1.1/DTD/svg11.dtd">
<!-- Uploaded to: SVG Repo, www.svgrepo.com, Transformed by: SVG Repo Mixer Tools -->
<svg width="800px" height="800px" viewBox="0 0 48 48" xmlns="http://www.w3.org/2000/svg" fill="#ffffff" stroke="#ffffff">
<g id="SVGRepo_bgCarrier" stroke-width="0"/>
<g id="SVGRepo_tracerCarrier" stroke-linecap="round" stroke-linejoin="round"/>
<g id="SVGRepo_iconCarrier"> <title>arrow-block-right-solid</title> <g id="Layer_2" data-name="Layer 2"> <g id="invisible_box" data-name="invisible box"> <rect width="48" height="48" fill="none"/> </g> <g id="Q3_icons" data-name="Q3 icons"> <path d="M22.4,4a2,2,0,0,0-2,2V16.1H8a2,2,0,0,0-2,2V29.9a2,2,0,0,0,2,2H20.4V42a2,2,0,0,0,2,2,2.2,2.2,0,0,0,1.5-.6L43.4,25.5a2.2,2.2,0,0,0,0-3L23.9,4.6A2.2,2.2,0,0,0,22.4,4Z"/> </g> </g> </g>
</svg>